<svg xmlns="http://www.w3.org/2000/svg" xml:space="preserve" width="64mm" height="64mm"
  viewBox="0 0 64 64">
    <style>
      .robot-path {
        fill: #000000;
      }

      @media (prefers-color-scheme: dark) {
        .robot-path {
          fill: #ffffff;
        }
      }
  </style>
<path class="robot-path" d="M32 2A30 30 0 0 0 2 32a30 30 0 0 0 30 30 30 30 0 0 0 30-30A30 30 0 0 0 32 2Zm4.067 11.012v3.957h2.028c5.768 0 10.885 3.746 11.508 8.972h.051c1.888 0 3.407 1.57 3.407 3.522v5.075c0 1.95-1.52 3.522-3.407 3.522h-.05c-.616 5.162-5.616 8.88-11.297 8.97l-10.411 3.958V47.03h-1.991c-5.768 0-10.886-3.745-11.51-8.972h-.05c-1.887 0-3.406-1.57-3.406-3.521v-5.075c0-1.952 1.52-3.523 3.407-3.523h.05c.615-5.15 5.593-8.862 11.258-8.969zm-10.162 8.737c-4.017 0-6.793 2.563-6.793 5.268v9.967c0 2.704 2.776 5.267 6.793 5.267h12.19c4.017 0 6.793-2.563 6.793-5.267v-9.967c0-2.705-2.776-5.268-6.793-5.268zm-.06 7.402c1.038 0 1.873.835 1.873 1.872v1.954a1.868 1.868 0 0 1-1.873 1.872 1.868 1.868 0 0 1-1.872-1.872v-1.954c0-1.037.835-1.872 1.872-1.872zm12.31 0c1.037 0 1.872.835 1.872 1.872v1.954a1.868 1.868 0 0 1-1.872 1.872 1.868 1.868 0 0 1-1.873-1.872v-1.954c0-1.037.835-1.872 1.873-1.872z" style="opacity:1;stroke:none;stroke-width:0;stroke-linecap:round;stroke-linejoin:round;stroke-opacity:.630112;paint-order:markers fill stroke"/>
</svg>