<?xml version="1.0" encoding="UTF-8" standalone="no"?>
<!-- Created with Inkscape (http://www.inkscape.org/) -->

<svg
   width="64mm"
   height="64mm"
   viewBox="0 0 64 64"
   version="1.1"
   id="svg1"
   xml:space="preserve"
   xmlns="http://www.w3.org/2000/svg"
   xmlns:svg="http://www.w3.org/2000/svg"><defs
     id="defs1" /><path
     id="path18"
     style="opacity:1;fill:#1a1a1a;stroke:none;stroke-width:0;stroke-linecap:round;stroke-linejoin:round;stroke-opacity:0.630112;paint-order:markers fill stroke"
     d="M 32.000036,2.0001266 A 30,30 0 0 0 1.9998056,31.999846 30,30 0 0 0 32.000036,62.000082 30,30 0 0 0 61.999756,31.999846 30,30 0 0 0 32.000036,2.0001266 Z m 4.06746,11.0117314 v 3.956864 h 2.02778 c 5.7678,0 10.8847,3.745987 11.50782,8.972062 0.0172,-2.61e-4 0.034,-5.17e-4 0.0512,-5.17e-4 1.88739,0 3.40703,1.570997 3.40703,3.522266 v 5.075143 c 0,1.951271 -1.51964,3.522265 -3.40703,3.522265 -0.0172,0 -0.034,-2.53e-4 -0.0512,-5.17e-4 -0.61535,5.162144 -5.61511,8.880122 -11.29595,8.970512 l -10.41125,3.957898 v -3.956347 h -1.99109 c -5.76789,0 -10.88577,-3.745854 -11.50886,-8.972063 -0.0168,2.27e-4 -0.0332,5.17e-4 -0.0501,5.17e-4 -1.88739,0 -3.40702,-1.570994 -3.40702,-3.522265 v -5.075143 c 0,-1.951269 1.51963,-3.522266 3.40702,-3.522266 0.0169,0 0.0337,2.66e-4 0.0507,5.17e-4 0.61418,-5.150072 5.59272,-8.862585 11.25719,-8.969478 z m -10.16269,8.736934 c -4.01708,0 -6.79235,2.56358 -6.79235,5.267896 v 9.966833 c 0,2.704315 2.77527,5.267896 6.79235,5.267896 h 12.19047 c 4.01709,0 6.79235,-2.563581 6.79235,-5.267896 v -9.966833 c 0,-2.704316 -2.77526,-5.267896 -6.79235,-5.267896 z m -0.0594,7.402132 c 1.03726,0 1.87224,0.83497 1.87224,1.872237 v 1.953886 c 0,1.037267 -0.83498,1.872237 -1.87224,1.872237 -1.03727,0 -1.87224,-0.83497 -1.87224,-1.872237 v -1.953886 c 0,-1.037267 0.83497,-1.872237 1.87224,-1.872237 z m 12.30933,0 c 1.03727,0 1.87223,0.83497 1.87223,1.872237 v 1.953886 c 0,1.037267 -0.83496,1.872237 -1.87223,1.872237 -1.03727,0 -1.87224,-0.83497 -1.87224,-1.872237 v -1.953886 c 0,-1.037267 0.83497,-1.872237 1.87224,-1.872237 z" /></svg>
