<?xml version="1.0" encoding="UTF-8" standalone="no"?>
<!-- Created with Inkscape (http://www.inkscape.org/) -->

<svg
   width="64mm"
   height="64mm"
   viewBox="0 0 64 64"
   version="1.1"
   id="svg1"
   xml:space="preserve"
   sodipodi:docname="logo-project.svg"
   inkscape:version="1.4.2 (ebf0e940, 2025-05-08)"
   inkscape:export-filename="logo.svg"
   inkscape:export-xdpi="25.4"
   inkscape:export-ydpi="25.4"
   xmlns:inkscape="http://www.inkscape.org/namespaces/inkscape"
   xmlns:sodipodi="http://sodipodi.sourceforge.net/DTD/sodipodi-0.dtd"
   xmlns="http://www.w3.org/2000/svg"
   xmlns:svg="http://www.w3.org/2000/svg"><sodipodi:namedview
     id="namedview1"
     pagecolor="#ffffff"
     bordercolor="#000000"
     borderopacity="0.25"
     inkscape:showpageshadow="2"
     inkscape:pageopacity="0.0"
     inkscape:pagecheckerboard="0"
     inkscape:deskcolor="#d1d1d1"
     inkscape:document-units="mm"
     showguides="true"
     inkscape:zoom="0.46926941"
     inkscape:cx="249.32373"
     inkscape:cy="50.077844"
     inkscape:window-width="1512"
     inkscape:window-height="920"
     inkscape:window-x="0"
     inkscape:window-y="34"
     inkscape:window-maximized="1"
     inkscape:current-layer="g15-0-9"><inkscape:page
       x="0"
       y="0"
       width="64"
       height="64"
       id="page17"
       margin="0"
       bleed="0" /><inkscape:page
       x="72.957893"
       y="0.25244939"
       width="64"
       height="64"
       id="page18"
       margin="0"
       bleed="0"
       inkscape:export-filename="favicon.svg"
       inkscape:export-xdpi="25.4"
       inkscape:export-ydpi="25.4" /><inkscape:page
       x="146.95789"
       y="0"
       width="64"
       height="64"
       id="page19"
       margin="0"
       bleed="0" /></sodipodi:namedview><defs
     id="defs1"><inkscape:path-effect
       effect="mirror_symmetry"
       start_point="136.86242,96.957551"
       end_point="72.862422,96.957551"
       center_point="104.86242,96.957551"
       id="path-effect15"
       is_visible="true"
       lpeversion="1.2"
       lpesatellites=""
       mode="horizontal"
       discard_orig_path="true"
       fuse_paths="false"
       oposite_fuse="false"
       split_items="false"
       split_open="false"
       link_styles="false" /><inkscape:path-effect
       effect="mirror_symmetry"
       start_point="103.91437,64.95755"
       end_point="103.91437,128.95755"
       center_point="103.91437,96.957551"
       id="path-effect14"
       is_visible="true"
       lpeversion="1.2"
       lpesatellites=""
       mode="vertical"
       discard_orig_path="false"
       fuse_paths="false"
       oposite_fuse="false"
       split_items="false"
       split_open="false"
       link_styles="false" /><inkscape:path-effect
       effect="mirror_symmetry"
       start_point="136.66718,96.957551"
       end_point="72.667182,96.957551"
       center_point="104.66718,96.957551"
       id="path-effect12"
       is_visible="true"
       lpeversion="1.2"
       lpesatellites=""
       mode="horizontal"
       discard_orig_path="true"
       fuse_paths="false"
       oposite_fuse="false"
       split_items="false"
       split_open="false"
       link_styles="false" /><inkscape:path-effect
       effect="mirror_symmetry"
       start_point="104.41793,15.864546"
       end_point="104.41793,174.61455"
       center_point="104.41793,95.239546"
       id="path-effect11"
       is_visible="true"
       lpeversion="1.2"
       lpesatellites=""
       mode="vertical"
       discard_orig_path="false"
       fuse_paths="false"
       oposite_fuse="false"
       split_items="false"
       split_open="false"
       link_styles="false" /><inkscape:path-effect
       effect="mirror_symmetry"
       start_point="170.44269,123.55231"
       end_point="-7.1292676,123.55231"
       center_point="81.656713,123.55231"
       id="path-effect10"
       is_visible="true"
       lpeversion="1.2"
       lpesatellites=""
       mode="vertical"
       discard_orig_path="false"
       fuse_paths="false"
       oposite_fuse="false"
       split_items="false"
       split_open="false"
       link_styles="false" /><inkscape:path-effect
       effect="mirror_symmetry"
       start_point="81.703266,94.974202"
       end_point="81.703266,104.76948"
       center_point="81.703266,99.871841"
       id="path-effect9"
       is_visible="true"
       lpeversion="1.2"
       lpesatellites=""
       mode="free"
       discard_orig_path="false"
       fuse_paths="false"
       oposite_fuse="false"
       split_items="false"
       split_open="false"
       link_styles="false" /><inkscape:path-effect
       effect="mirror_symmetry"
       start_point="77.522373,94.175064"
       end_point="77.522373,104.56573"
       center_point="77.522373,99.370397"
       id="path-effect8"
       is_visible="true"
       lpeversion="1.2"
       lpesatellites=""
       mode="free"
       discard_orig_path="false"
       fuse_paths="false"
       oposite_fuse="false"
       split_items="false"
       split_open="false"
       link_styles="false" /><inkscape:path-effect
       effect="mirror_symmetry"
       start_point="144.48424,70.167191"
       end_point="144.48424,78.059915"
       center_point="144.48424,74.113553"
       id="path-effect6"
       is_visible="true"
       lpeversion="1.2"
       lpesatellites=""
       mode="free"
       discard_orig_path="false"
       fuse_paths="false"
       oposite_fuse="false"
       split_items="false"
       split_open="false"
       link_styles="false" /><inkscape:path-effect
       effect="mirror_symmetry"
       start_point="44.417926,83.890301"
       end_point="164.41793,83.890301"
       center_point="104.41793,83.890301"
       id="path-effect12-2"
       is_visible="true"
       lpeversion="1.2"
       lpesatellites=""
       mode="horizontal"
       discard_orig_path="false"
       fuse_paths="false"
       oposite_fuse="false"
       split_items="false"
       split_open="false"
       link_styles="false" /><inkscape:path-effect
       effect="mirror_symmetry"
       start_point="44.417927,95.225483"
       end_point="164.41793,95.225483"
       center_point="104.41793,95.225483"
       id="path-effect15-6"
       is_visible="true"
       lpeversion="1.2"
       lpesatellites=""
       mode="horizontal"
       discard_orig_path="false"
       fuse_paths="false"
       oposite_fuse="false"
       split_items="false"
       split_open="false"
       link_styles="false" /><inkscape:path-effect
       effect="mirror_symmetry"
       start_point="164.16362,95.225483"
       end_point="44.163624,95.225483"
       center_point="104.16362,95.225483"
       id="path-effect12-9"
       is_visible="true"
       lpeversion="1.2"
       lpesatellites=""
       mode="horizontal"
       discard_orig_path="true"
       fuse_paths="false"
       oposite_fuse="false"
       split_items="false"
       split_open="false"
       link_styles="false" /><inkscape:path-effect
       effect="mirror_symmetry"
       start_point="104.41793,35.225483"
       end_point="104.41793,155.22548"
       center_point="104.41793,95.225483"
       id="path-effect14-1"
       is_visible="true"
       lpeversion="1.2"
       lpesatellites=""
       mode="vertical"
       discard_orig_path="false"
       fuse_paths="false"
       oposite_fuse="false"
       split_items="false"
       split_open="false"
       link_styles="false" /><inkscape:path-effect
       effect="mirror_symmetry"
       start_point="164.35886,95.225483"
       end_point="44.358864,95.225483"
       center_point="104.35886,95.225483"
       id="path-effect15-2"
       is_visible="true"
       lpeversion="1.2"
       lpesatellites=""
       mode="horizontal"
       discard_orig_path="true"
       fuse_paths="false"
       oposite_fuse="false"
       split_items="false"
       split_open="false"
       link_styles="false" /></defs><g
     inkscape:label="Layer 1"
     inkscape:groupmode="layer"
     id="layer1"
     transform="translate(-71.914366,-64.95755)"
     style="display:none"><g
       id="g15"><path
         id="rect7"
         d="m 94.640001,90.713058 c 1.6479,0 2.974549,1.32665 2.974549,2.97455 v 3.103877 c 0,1.6479 -1.326649,2.974549 -2.974549,2.974549 -1.647901,0 -2.97455,-1.326649 -2.97455,-2.974549 v -3.103877 c 0,-1.6479 1.326649,-2.97455 2.97455,-2.97455 z m 19.555849,0 c -1.6479,0 -2.97455,1.32665 -2.97455,2.97455 v 3.103877 c 0,1.6479 1.32665,2.974549 2.97455,2.974549 1.6479,0 2.97455,-1.326649 2.97455,-2.974549 v -3.103877 c 0,-1.6479 -1.32665,-2.97455 -2.97455,-2.97455 z"
         style="fill:#1a1a1a;fill-opacity:0.444238;stroke:#000000;stroke-width:0;stroke-linecap:round;stroke-linejoin:round;stroke-dasharray:none;stroke-opacity:1"
         transform="translate(0,-0.0140643)" /><path
         id="rect8"
         style="fill:#1a1a1a;fill-opacity:0.444238;stroke:#000000;stroke-width:0;stroke-linecap:round;stroke-linejoin:round"
         d="m 70.911917,98.689664 c 0,-5.477122 0.263761,-7.948842 4.981091,-9.636622 1.331631,-8.10018 9.208275,-14.2844 18.7849,-14.2844 h 2.655135 v -6.94169 l 18.966797,7.0962 c 8.34557,1.00001 14.93239,6.74245 16.16956,14.06374 h 0.0331 c 4.84174,1.69516 5.16713,4.01115 5.16713,9.702772 h -10.99778 v -5.127852 c 0,-6.40172 -6.68156,-11.55537 -14.981,-11.55537 H 96.682954 c -8.299444,0 -14.980998,5.15365 -14.980998,11.55537 v 5.127852 z"
         sodipodi:nodetypes="ccscccccccsssscc"
         inkscape:path-effect="#path-effect12"
         inkscape:original-d="m 70.911917,95.225438 c 0,5.477122 0.263761,7.948842 4.981091,9.636622 1.331631,8.10018 9.208275,14.2844 18.7849,14.2844 h 2.655135 v 6.94169 l 18.966797,-7.0962 c 8.34557,-1.00001 14.93239,-6.74245 16.16956,-14.06374 h 0.0331 c 4.84174,-1.69516 5.16713,-4.01115 5.16713,-9.702772 h -10.99778 v 5.127852 c 0,6.40172 -6.68156,11.55537 -14.981,11.55537 H 96.682954 c -8.299444,0 -14.980998,-5.15365 -14.980998,-11.55537 v -5.127852 z"
         transform="matrix(-1,0,0,1,208.58155,0)" /><path
         id="rect8-3"
         style="fill:#1a1a1a;fill-opacity:0.444238;stroke:#000000;stroke-width:0;stroke-linecap:round;stroke-linejoin:round"
         d="m 71.049499,95.278977 c 0,5.477123 0.263761,7.948843 4.981091,9.636623 1.331631,8.10018 9.208275,14.2844 18.7849,14.2844 h 2.655135 v 6.94169 l 18.966795,-7.0962 c 8.34557,-1.00001 14.93239,-6.74245 16.16956,-14.06374 h 0.0331 c 4.84174,-1.69516 5.16713,-4.01115 5.16713,-9.702773 h -10.99778 v 5.127853 c 0,6.40172 -6.68156,11.55537 -14.981,11.55537 H 96.820536 c -8.299444,0 -14.980998,-5.15365 -14.980998,-11.55537 v -5.127853 z"
         sodipodi:nodetypes="ccscccccccsssscc" /><path
         style="font-variation-settings:normal;opacity:1;vector-effect:none;fill:#ff0000;fill-opacity:0.444238;stroke:#000000;stroke-width:0;stroke-linecap:round;stroke-linejoin:round;stroke-miterlimit:4;stroke-dasharray:none;stroke-dashoffset:0;stroke-opacity:1;-inkscape-stroke:none"
         id="rect13"
         width="10.824849"
         height="19.254204"
         x="70.957993"
         y="85.598381"
         rx="0"
         ry="5.5956154"
         inkscape:path-effect="#path-effect14"
         sodipodi:type="rect"
         d="m 76.370417,85.598381 c 2.998483,0 5.412425,2.495645 5.412425,5.595615 v 8.062973 c 0,3.099971 -2.413942,5.595611 -5.412425,5.595611 -2.998483,0 -5.412424,-2.49564 -5.412424,-5.595611 v -8.062973 c 0,-3.09997 2.413941,-5.595615 5.412424,-5.595615 z m 55.087903,0 c -2.99849,0 -5.41243,2.495645 -5.41243,5.595615 v 8.062973 c 0,3.099971 2.41394,5.595611 5.41243,5.595611 2.99848,0 5.41242,-2.49564 5.41242,-5.595611 v -8.062973 c 0,-3.09997 -2.41394,-5.595615 -5.41242,-5.595615 z" /><rect
         style="font-variation-settings:normal;opacity:1;fill:none;fill-opacity:0.444238;stroke:#cac400;stroke-width:7.59362;stroke-linecap:round;stroke-linejoin:round;stroke-miterlimit:4;stroke-dasharray:none;stroke-dashoffset:0;stroke-opacity:0.630112"
         id="rect14"
         width="48.541134"
         height="40.165871"
         x="80.147362"
         y="75.142548"
         ry="12.165584"
         rx="14.587314" /><path
         style="font-variation-settings:normal;opacity:1;fill:#ff0000;fill-opacity:0.444238;stroke:#ff0000;stroke-width:1.1;stroke-linecap:round;stroke-linejoin:round;stroke-miterlimit:4;stroke-dasharray:none;stroke-dashoffset:0;stroke-opacity:0.630112;paint-order:markers fill stroke"
         d="m 97.897372,77.278732 v -8.75521 l 20.355088,7.73899 z"
         id="path14"
         sodipodi:nodetypes="cccc"
         inkscape:path-effect="#path-effect15"
         inkscape:original-d="m 97.897372,116.63637 v 8.75521 l 20.355088,-7.73899 z"
         transform="matrix(-1,0,0,1,208.77679,0)" /><path
         style="font-variation-settings:normal;fill:#ff0000;fill-opacity:0.444238;stroke:#ff0000;stroke-width:1.1;stroke-linecap:round;stroke-linejoin:round;stroke-miterlimit:4;stroke-dasharray:none;stroke-dashoffset:0;stroke-opacity:0.630112;paint-order:markers fill stroke"
         d="m 97.897372,116.63637 v 8.75521 l 20.355088,-7.73899 z"
         id="path14-9"
         sodipodi:nodetypes="cccc" /></g></g><path
     id="path18"
     style="opacity:1;stroke:none;stroke-width:0;stroke-linecap:round;stroke-linejoin:round;stroke-opacity:0.630112;paint-order:markers fill stroke;fill:#000000;fill-opacity:1"
     d="M 132.45437 31.984644 A 30 30 0 0 0 102.45414 61.984363 A 30 30 0 0 0 132.45437 91.984599 A 30 30 0 0 0 162.45409 61.984363 A 30 30 0 0 0 132.45437 31.984644 z M 136.52183 42.996375 L 136.52183 46.953239 L 138.54961 46.953239 C 144.31741 46.953239 149.43431 50.699226 150.05743 55.925301 C 150.07463 55.92504 150.09139 55.924784 150.10859 55.924784 C 151.99598 55.924784 153.51562 57.495781 153.51562 59.44705 L 153.51562 64.522193 C 153.51562 66.473464 151.99598 68.044458 150.10859 68.044458 C 150.09139 68.044458 150.07463 68.044205 150.05743 68.043941 C 149.44208 73.206085 144.44232 76.924063 138.76148 77.014453 L 128.35023 80.972351 L 128.35023 77.016004 L 126.35914 77.016004 C 120.59125 77.016004 115.47337 73.27015 114.85028 68.043941 C 114.83348 68.044168 114.81705 68.044458 114.80015 68.044458 C 112.91276 68.044458 111.39313 66.473464 111.39313 64.522193 L 111.39313 59.44705 C 111.39313 57.495781 112.91276 55.924784 114.80015 55.924784 C 114.81705 55.924784 114.8339 55.92505 114.8508 55.925301 C 115.46498 50.775229 120.44352 47.062716 126.10799 46.955823 L 136.52183 42.996375 z M 126.35914 51.733309 C 122.34206 51.733309 119.56679 54.296889 119.56679 57.001205 L 119.56679 66.968038 C 119.56679 69.672353 122.34206 72.235934 126.35914 72.235934 L 138.54961 72.235934 C 142.5667 72.235934 145.34196 69.672353 145.34196 66.968038 L 145.34196 57.001205 C 145.34196 54.296889 142.5667 51.733309 138.54961 51.733309 L 126.35914 51.733309 z M 126.29971 59.135441 C 127.33697 59.135441 128.17195 59.970411 128.17195 61.007678 L 128.17195 62.961564 C 128.17195 63.998831 127.33697 64.833801 126.29971 64.833801 C 125.26244 64.833801 124.42747 63.998831 124.42747 62.961564 L 124.42747 61.007678 C 124.42747 59.970411 125.26244 59.135441 126.29971 59.135441 z M 138.60904 59.135441 C 139.64631 59.135441 140.48127 59.970411 140.48127 61.007678 L 140.48127 62.961564 C 140.48127 63.998831 139.64631 64.833801 138.60904 64.833801 C 137.57177 64.833801 136.7368 63.998831 136.7368 62.961564 L 136.7368 61.007678 C 136.7368 59.970411 137.57177 59.135441 138.60904 59.135441 z "
     transform="translate(-27.496439,-29.732068)" /><path
     id="path18-1"
     style="stroke:#ff0000;stroke-width:0;stroke-linecap:round;stroke-linejoin:round;stroke-opacity:0.630112;paint-order:markers fill stroke;fill:#ffffff"
     d="M 178.95815,2.0000237 A 30,30 0 0 0 148.95792,31.999743 30,30 0 0 0 178.95815,61.999978 30,30 0 0 0 208.95787,31.999743 30,30 0 0 0 178.95815,2.0000237 Z m 4.06746,11.0117313 v 3.956864 h 2.02778 c 5.7678,0 10.8847,3.745987 11.50782,8.972062 0.0172,-2.61e-4 0.034,-5.17e-4 0.0512,-5.17e-4 1.88739,0 3.40703,1.570997 3.40703,3.522266 v 5.075143 c 0,1.951271 -1.51964,3.522265 -3.40703,3.522265 -0.0172,0 -0.034,-2.53e-4 -0.0512,-5.17e-4 -0.61535,5.162144 -5.61511,8.880122 -11.29595,8.970512 l -10.41125,3.957898 v -3.956347 h -1.99109 c -5.76789,0 -10.88577,-3.745854 -11.50886,-8.972063 -0.0168,2.27e-4 -0.0332,5.17e-4 -0.0501,5.17e-4 -1.88739,0 -3.40702,-1.570994 -3.40702,-3.522265 V 29.46243 c 0,-1.951269 1.51963,-3.522266 3.40702,-3.522266 0.0169,0 0.0337,2.66e-4 0.0507,5.17e-4 0.61418,-5.150072 5.59272,-8.862585 11.25719,-8.969478 z m -10.16269,8.736934 c -4.01708,0 -6.79235,2.56358 -6.79235,5.267896 v 9.966833 c 0,2.704315 2.77527,5.267896 6.79235,5.267896 h 12.19047 c 4.01709,0 6.79235,-2.563581 6.79235,-5.267896 v -9.966833 c 0,-2.704316 -2.77526,-5.267896 -6.79235,-5.267896 z m -0.0594,7.402132 c 1.03726,0 1.87224,0.83497 1.87224,1.872237 v 1.953886 c 0,1.037267 -0.83498,1.872237 -1.87224,1.872237 -1.03727,0 -1.87224,-0.83497 -1.87224,-1.872237 v -1.953886 c 0,-1.037267 0.83497,-1.872237 1.87224,-1.872237 z m 12.30933,0 c 1.03727,0 1.87223,0.83497 1.87223,1.872237 v 1.953886 c 0,1.037267 -0.83496,1.872237 -1.87223,1.872237 -1.03727,0 -1.87224,-0.83497 -1.87224,-1.872237 v -1.953886 c 0,-1.037267 0.83497,-1.872237 1.87224,-1.872237 z" /><g
     inkscape:groupmode="layer"
     id="layer2"
     inkscape:label="Layer 2"
     transform="translate(-27.496439,-29.732067)"><g
       id="g15-0-9"
       transform="matrix(0.87171054,0,0,0.87171054,-31.525706,-21.27697)"
       style="display:inline;fill:#000000;fill-opacity:1"><path
         id="rect7-1-3"
         d="m 94.640001,90.713058 c 1.6479,0 2.974549,1.32665 2.974549,2.97455 v 3.103877 c 0,1.6479 -1.326649,2.974549 -2.974549,2.974549 -1.647901,0 -2.97455,-1.326649 -2.97455,-2.974549 v -3.103877 c 0,-1.6479 1.326649,-2.97455 2.97455,-2.97455 z m 19.555849,0 c -1.6479,0 -2.97455,1.32665 -2.97455,2.97455 v 3.103877 c 0,1.6479 1.32665,2.974549 2.97455,2.974549 1.6479,0 2.97455,-1.326649 2.97455,-2.974549 v -3.103877 c 0,-1.6479 -1.32665,-2.97455 -2.97455,-2.97455 z"
         style="fill:#000000;fill-opacity:1;stroke:#000000;stroke-width:0;stroke-linecap:round;stroke-linejoin:round;stroke-dasharray:none;stroke-opacity:1"
         transform="translate(0,-0.0140643)" /><path
         id="rect13-1-7"
         style="font-variation-settings:normal;opacity:1;vector-effect:none;fill:#000000;fill-opacity:1;stroke:#000000;stroke-width:0;stroke-linecap:round;stroke-linejoin:round;stroke-miterlimit:4;stroke-dasharray:none;stroke-dashoffset:0;stroke-opacity:1;-inkscape-stroke:none"
         d="m 110.8795,65.059321 -16.544207,6.290055 c -8.999118,0.169821 -16.908435,6.067885 -17.88418,14.249776 -0.02677,-3.99e-4 -0.05375,-5.16e-4 -0.08062,-5.16e-4 -2.998483,0 -5.41259,2.495554 -5.41259,5.595524 v 8.062557 c 0,3.099973 2.414107,5.596043 5.41259,5.596043 0.02684,0 0.05335,-6.4e-4 0.0801,-0.001 0.9899,8.30285 9.120216,14.25391 18.283639,14.25391 h 3.163114 v 6.28593 l 16.540594,-6.28851 c 9.02512,-0.1436 16.96808,-6.05026 17.94568,-14.25133 0.0273,4.2e-4 0.0543,0.001 0.0816,0.001 2.99849,0 5.41259,-2.49607 5.41259,-5.596043 V 91.19416 c 0,-3.09997 -2.4141,-5.595524 -5.41259,-5.595524 -0.0274,0 -0.0543,1.01e-4 -0.0816,5.16e-4 -0.98995,-8.302636 -9.11882,-14.253393 -18.28209,-14.253393 h -3.22203 z m -16.145265,13.88029 h 19.367295 c 6.38192,0 10.79107,4.072667 10.79107,8.368998 v 15.834171 c 0,4.29633 -4.40915,8.369 -10.79107,8.369 H 94.734235 c -6.381914,0 -10.791073,-4.07267 -10.791073,-8.369 V 87.308609 c 0,-4.296331 4.409159,-8.368998 10.791073,-8.368998 z" /></g></g></svg>
