<svg xmlns="http://www.w3.org/2000/svg" xml:space="preserve" width="64mm" height="64mm"
  viewBox="0 0 64 64"><g style="display:inline;fill:#fff;fill-opacity:1"><path d="M94.64 90.713a2.968 2.968 0 0 1 2.975 2.975v3.103a2.968 2.968 0 0 1-2.975 2.975 2.968 2.968 0 0 1-2.975-2.975v-3.103a2.968 2.968 0 0 1 2.975-2.975zm19.556 0a2.968 2.968 0 0 0-2.975 2.975v3.103a2.968 2.968 0 0 0 2.975 2.975 2.968 2.968 0 0 0 2.974-2.975v-3.103a2.968 2.968 0 0 0-2.974-2.975z" style="fill:#fff;fill-opacity:1;stroke:#fff;stroke-width:0;stroke-linecap:round;stroke-linejoin:round;stroke-dasharray:none;stroke-opacity:1" transform="matrix(.62945 0 0 .62945 -33.726 -27.948)"/><path d="m110.88 65.06-16.545 6.29c-8.999.17-16.908 6.067-17.884 14.25l-.08-.001c-2.999 0-5.413 2.495-5.413 5.595v8.063c0 3.1 2.414 5.596 5.412 5.596l.08-.001c.99 8.303 9.12 14.254 18.284 14.254h3.163v6.286l16.54-6.289c9.026-.144 16.969-6.05 17.947-14.251h.081c2.999 0 5.413-2.495 5.413-5.595v-8.063c0-3.1-2.414-5.595-5.413-5.595h-.081c-.99-8.302-9.12-14.253-18.282-14.253h-3.222zM94.733 78.94h19.368c6.381 0 10.79 4.072 10.79 8.369v15.834c0 4.296-4.409 8.369-10.79 8.369H94.734c-6.382 0-10.79-4.073-10.79-8.37V87.31c0-4.297 4.408-8.37 10.79-8.37z" style="font-variation-settings:normal;opacity:1;vector-effect:none;fill:#fff;fill-opacity:1;stroke:#fff;stroke-width:0;stroke-linecap:round;stroke-linejoin:round;stroke-miterlimit:4;stroke-dasharray:none;stroke-dashoffset:0;stroke-opacity:1;-inkscape-stroke:none" transform="matrix(.62945 0 0 .62945 -33.726 -27.94)"/></g></svg>